<svg width="562" height="128" viewBox="0 0 562 128" fill="none" xmlns="http://www.w3.org/2000/svg">
    <path
        d="M347.749 56.3834C347.749 65.7326 347.749 75.0818 347.75 84.431C347.75 88.4575 347.734 92.4843 347.769 96.5106C347.776 97.386 347.424 97.6394 346.602 97.6421C342.264 97.6564 337.925 97.6788 333.587 97.763C332.64 97.7813 332.407 97.4488 332.407 96.5749C332.419 75.2083 332.414 53.8416 332.394 32.475C332.393 31.558 332.645 31.2118 333.645 31.2229C339.151 31.2843 344.658 31.2972 350.163 31.2558C350.97 31.2497 351.324 31.5106 351.656 32.1755C355.44 39.7772 359.256 47.3629 363.049 54.9603C365.237 59.3435 367.395 63.7418 369.575 68.1291C369.871 68.7257 370.217 69.298 370.669 70.1149C371.013 69.5518 371.233 69.2435 371.4 68.9089C375.643 60.3996 379.895 51.8953 384.11 43.3725C385.879 39.7943 387.589 36.1862 389.275 32.5685C389.678 31.7034 390.182 31.3039 391.176 31.3084C396.756 31.3339 402.335 31.3123 407.915 31.2837C408.65 31.28 408.832 31.5806 408.831 32.2652C408.813 53.6682 408.805 75.0712 408.824 96.4742C408.825 97.4654 408.453 97.698 407.542 97.6933C403.313 97.6712 399.084 97.6769 394.855 97.7317C393.877 97.7444 393.503 97.4874 393.504 96.454C393.509 86.2247 393.467 75.9953 393.444 65.7659C393.436 62.5813 393.442 59.3966 393.188 56.1202C392.875 56.6925 392.537 57.2523 392.254 57.8388C388.839 64.9312 385.42 72.0221 382.027 79.1252C380.292 82.7572 378.591 86.4055 376.914 90.0643C376.559 90.8386 376.041 91.1605 375.222 91.1574C372.343 91.1463 369.463 91.1296 366.585 91.1618C365.456 91.1744 364.885 90.5768 364.44 89.6463C361.414 83.3287 358.376 77.0171 355.322 70.7136C353.311 66.5655 351.278 62.4283 349.225 58.3007C348.866 57.578 348.36 56.9272 347.922 56.2432C347.865 56.2899 347.807 56.3366 347.749 56.3834Z"
        fill="#7dd779" />
    <path
        d="M289.398 30.3405C292.47 30.1501 297.015 31.0407 301.356 32.7182C308.144 35.3409 313.698 39.6027 317.843 45.634C321.301 50.6639 322.821 56.2725 323.251 62.2727C323.625 67.5031 322.841 72.5836 320.974 77.4209C319.62 80.9272 317.672 84.1623 315.032 86.9785C312.163 90.0385 308.99 92.6467 305.276 94.5888C299.55 97.5839 293.435 98.9826 286.966 98.8916C281.058 98.8085 275.341 97.8179 270.054 95.0978C263.387 91.6671 258.261 86.6076 254.826 79.9686C251.283 73.1233 250.502 65.841 251.76 58.2898C253.015 50.7627 256.662 44.567 262.273 39.4577C269.49 32.8858 278.15 30.2889 289.398 30.3405ZM269.115 64.7694C269.415 69.5329 270.469 73.8408 273.68 77.3497C274.654 78.415 275.706 79.4261 276.815 80.3512C280.348 83.2962 284.526 84.3894 289.029 84.0775C293.177 83.7903 296.766 81.9408 299.711 79.1167C301.228 77.6617 302.624 75.858 303.433 73.9437C304.975 70.2973 305.817 66.4476 305.305 62.3871C304.612 56.8933 302.689 52.1449 298.118 48.6328C292.496 44.3128 284.158 43.6734 277.741 47.8742C271.602 51.8925 269.533 58.0143 269.115 64.7694Z"
        fill="#7dd779" />
    <path
        d="M151.687 97.6018C150.922 97.6404 150.427 97.6864 149.932 97.687C144.757 97.6935 139.581 97.6799 134.406 97.7003C132.326 97.7085 132.189 97.5597 131.28 95.6934C129.946 92.9544 128.484 90.2771 127.072 87.5757C125.828 85.1952 124.55 82.8318 123.348 80.4309C122.942 79.6212 122.447 79.2156 121.503 79.2248C117.892 79.26 114.281 79.2609 110.671 79.2222C109.835 79.2133 109.615 79.5213 109.615 80.2994C109.614 84.542 109.578 88.7845 109.543 93.027C109.533 94.2595 109.467 95.4918 109.467 96.7242C109.468 97.3833 109.177 97.6154 108.541 97.6129C103.437 97.5924 98.3315 97.567 93.2267 97.5927C92.2253 97.5977 92.1282 97.1021 92.129 96.31C92.1389 86.9137 92.1248 77.5175 92.1251 68.1212C92.1254 56.5845 92.1338 45.0477 92.1377 33.511C92.1382 32.012 92.9111 31.266 94.4565 31.2732C102.043 31.2911 109.629 31.2864 117.215 31.3286C120.605 31.3475 124.009 31.2811 127.381 31.5624C134.773 32.1789 141.141 35.0374 145.822 40.9242C148.17 43.8765 149.37 47.3605 149.713 51.1479C149.986 54.163 150.022 57.1466 149.489 60.1388C148.305 66.7938 145.035 72.0263 139.05 75.4175C138.351 75.8136 138.212 76.141 138.671 76.8492C142.758 83.1574 146.818 89.4825 150.869 95.8138C151.182 96.3027 151.361 96.8768 151.687 97.6018ZM109.598 55.3897C109.555 55.3897 109.512 55.3896 109.47 55.3896C109.47 58.3997 109.487 61.4101 109.457 64.4199C109.45 65.1751 109.647 65.5905 110.482 65.5736C115.18 65.4784 119.89 65.565 124.575 65.2594C128.262 65.0189 131.243 63.2188 132.631 59.646C133.838 56.5359 133.877 53.2828 132.37 50.2325C130.687 46.8247 127.629 45.4193 123.975 45.2924C119.605 45.1407 115.229 45.1599 110.856 45.0714C109.898 45.052 109.578 45.4494 109.587 46.3616C109.616 49.3707 109.598 52.3803 109.598 55.3897Z"
        fill="#7dd779" />
    <path
        d="M38.5959 59.7509C39.1571 59.1441 39.737 58.5533 40.2765 57.928C44.501 53.0326 48.7121 48.1258 52.9389 43.2324C55.3592 40.4305 57.801 37.647 60.2331 34.8552C61.0203 33.9516 61.8241 33.0616 62.589 32.1397C63.123 31.4961 63.7691 31.2824 64.6011 31.2869C69.2696 31.3122 73.9382 31.2938 78.6068 31.2908C80.0574 31.2899 81.5079 31.2907 83.3185 31.2907C82.2353 32.6035 81.391 33.7098 80.461 34.7396C76.5654 39.0534 72.6506 43.3502 68.7296 47.6412C66.5968 49.9754 64.4304 52.2792 62.2932 54.6095C61.263 55.7328 60.296 56.9148 59.24 58.0128C58.7249 58.5483 58.8994 58.9774 59.2179 59.458C60.9234 62.0316 62.6229 64.6091 64.3423 67.1734C69.4399 74.7758 74.5388 82.3773 79.6533 89.9684C81.0127 91.9861 82.4352 93.9615 83.8171 95.9643C84.1221 96.4065 84.3775 96.8825 84.7513 97.5012C84.3001 97.5739 84.0016 97.6631 83.7027 97.6642C77.7248 97.6861 71.7465 97.6624 65.7694 97.7419C64.5903 97.7576 63.8713 97.3642 63.2461 96.4315C58.0895 88.7387 52.9086 81.0621 47.7308 73.3833C47.3938 72.8836 47.0217 72.4073 46.5579 71.7723C45.8589 72.5925 45.2971 73.2888 44.6962 73.9499C42.8386 75.9935 40.9934 78.0495 39.0849 80.0454C38.3808 80.7818 38.0697 81.5335 38.0825 82.5614C38.1403 87.2046 38.1011 91.849 38.1506 96.4924C38.1611 97.4863 37.7456 97.7375 36.8442 97.7215C33.1268 97.6553 29.4088 97.6156 25.6909 97.5945C24.4159 97.5872 23.139 97.6385 21.8655 97.7088C21.0728 97.7526 20.7417 97.4578 20.7512 96.6526C20.7769 94.4761 20.7551 92.2991 20.7548 90.1223C20.7523 71.1474 20.7505 52.1725 20.7482 33.1976C20.748 31.276 20.7472 31.3004 22.6526 31.2992C27.3939 31.2962 32.1353 31.2731 36.8765 31.2485C38.0758 31.2423 38.227 31.4151 38.2202 32.6389C38.1725 41.1636 38.1358 49.6885 38.1084 58.2133C38.1069 58.701 38.2175 59.189 38.2759 59.6769C38.3826 59.7016 38.4892 59.7263 38.5959 59.7509Z"
        fill="#7dd779" />
    <path
        d="M449.344 30.013C456.658 30.2441 464.438 31.9861 471.661 35.9077C472.172 36.185 472.722 36.3887 473.249 36.6365C474.494 37.2218 474.67 37.7383 474.052 38.951C472.915 41.1814 471.753 43.3999 470.653 45.648C469.983 47.0159 469.432 48.4405 468.785 49.8204C468.185 51.1026 467.971 51.0991 466.726 50.4405C460.76 47.2855 454.519 44.9327 447.729 44.3254C446.433 44.2094 445.089 44.2529 443.806 44.4619C442.104 44.7391 440.522 45.4616 439.904 47.2247C439.191 49.258 439.922 51.0781 441.413 52.4581C442.402 53.3741 443.625 54.1835 444.889 54.6365C449.241 56.1953 453.675 57.525 458.042 59.0414C461.511 60.2456 464.917 61.5622 467.883 63.8615C473.029 67.8499 475.009 73.0778 474.609 79.4251C474.435 82.1943 473.657 84.7556 472.572 87.2678C471.204 90.4354 468.569 92.4119 465.802 94.1704C461.8 96.7147 457.287 97.84 452.608 98.4127C446.654 99.1415 440.88 98.3472 435.093 96.876C428.87 95.2939 423.331 92.4857 418.19 88.7555C417.328 88.1303 417.438 87.4573 417.826 86.6709C419.11 84.0672 420.39 81.4612 421.672 78.856C422.28 77.6191 422.879 76.3772 423.502 75.1479C423.71 74.7382 423.979 74.3507 424.496 74.8321C426.863 77.0336 429.645 78.5923 432.49 80.0867C437.665 82.8044 443.08 84.5377 448.992 84.4624C450.903 84.438 452.652 83.9223 454.233 82.8339C457.028 80.9107 457.215 77.1096 454.517 75.0525C452.081 73.1949 449.245 72.1749 446.291 71.3981C441.144 70.0451 435.976 68.638 431.265 66.1486C427.225 64.0139 423.613 61.1705 422.279 56.518C420.696 51.0019 420.942 45.5119 424.106 40.5821C425.897 37.792 428.277 35.4078 431.378 33.8437C436.77 31.1238 442.511 30.0901 449.344 30.013Z"
        fill="#7dd779" />
    <path
        d="M542.866 31.2803C542.571 31.9737 542.408 32.4505 542.174 32.8896C539.014 38.8115 535.855 44.7335 532.674 50.6444C529.975 55.6602 527.233 60.653 524.541 65.6725C522.81 68.9018 521.101 72.1445 519.459 75.4198C519.1 76.1366 518.919 77.0161 518.914 77.8223C518.874 83.8427 518.892 89.8635 518.908 95.8842C518.912 97.5402 518.795 97.6765 517.134 97.6793C512.359 97.6873 507.583 97.6687 502.808 97.7396C501.728 97.7557 501.417 97.4087 501.423 96.384C501.455 90.7624 501.388 85.1398 501.468 79.519C501.493 77.6778 501.106 76.0512 500.222 74.4409C496.883 68.3662 493.603 62.2596 490.321 56.1539C486.816 49.6325 483.344 43.0938 479.836 36.5742C479.097 35.2009 478.258 33.8805 477.473 32.5317C476.834 31.4346 476.986 31.1669 478.295 31.18C481.357 31.2105 484.419 31.2768 487.481 31.3079C489.231 31.3257 490.984 31.3526 492.731 31.2803C493.836 31.2346 494.475 31.6991 494.983 32.6276C497.992 38.1375 501.037 43.6284 504.066 49.1281C505.938 52.5281 507.803 55.9324 509.672 59.334C509.724 59.4278 509.791 59.5131 509.952 59.753C510.28 59.3188 510.567 59.0197 510.76 58.6691C514.295 52.247 517.837 45.8284 521.335 39.3866C522.616 37.028 523.828 34.6297 524.987 32.2095C525.331 31.4909 525.752 31.2757 526.493 31.2836C529.629 31.3169 532.765 31.324 535.901 31.3122C537.759 31.3052 539.617 31.2404 541.476 31.2124C541.861 31.2066 542.247 31.2484 542.866 31.2803Z"
        fill="#7dd779" />
    <path
        d="M222.929 31.3017C232.01 31.3017 241.091 31.3024 250.173 31.3011C251.698 31.3008 251.705 31.3302 251.702 32.7967C251.694 36.678 251.694 40.5596 251.738 44.4405C251.744 45.0418 251.598 45.3357 251.003 45.3738C250.531 45.404 250.058 45.4496 249.586 45.4499C244.115 45.453 238.644 45.4691 233.174 45.4279C232.177 45.4203 231.766 45.6303 231.767 46.7364C231.791 63.0974 231.769 79.4585 231.766 95.8196C231.766 97.6001 231.637 97.6926 229.845 97.6852C225.107 97.6657 220.369 97.6676 215.632 97.7347C214.623 97.749 214.291 97.4796 214.292 96.4689C214.318 80.4712 214.312 64.4735 214.32 48.4758C214.32 47.8969 214.333 47.3113 214.42 46.7408C214.561 45.8124 214.265 45.4351 213.265 45.4432C209.072 45.4768 204.877 45.4478 200.683 45.4437C199.006 45.4421 197.328 45.4211 195.651 45.4569C194.696 45.4772 194.302 45.1705 194.316 44.1354C194.372 40.2545 194.368 36.3719 194.316 32.4908C194.303 31.5085 194.638 31.2795 195.576 31.2828C204.693 31.3142 213.811 31.3017 222.929 31.3017Z"
        fill="#7dd779" />
    <path
        d="M176.861 32.2342C177.27 32.346 177.803 32.3325 178.064 32.5913C179.224 33.742 180.344 34.9395 181.389 36.1932C181.649 36.5055 181.771 37.1695 181.62 37.533C181.331 38.2256 181.588 38.6268 182.016 39.071C183.024 40.1184 184.026 41.173 185.021 42.2328C185.619 42.8695 185.988 43.5242 185.66 44.4889C185.537 44.8515 185.82 45.4767 186.108 45.8281C186.959 46.8664 187.911 47.8218 188.811 48.8212C189.368 49.4407 189.641 50.0808 189.425 50.9989C189.299 51.5324 189.547 52.2994 189.892 52.7672C190.774 53.9617 191.81 55.0432 192.773 56.1794C193.025 56.4772 193.236 56.8097 193.454 57.1097C192.269 58.4031 192.276 58.3979 193.324 59.7537C194.257 60.9604 195.182 62.1736 196.091 63.3978C196.51 63.9614 196.679 64.5106 195.803 64.8472C195.178 65.0875 195.249 65.5242 195.515 65.9928C196.339 67.4442 197.169 68.8929 197.994 70.3439C198.558 71.336 198.312 72.0684 197.255 72.541C198.137 74.7415 199.023 76.9532 199.91 79.1649C199.804 79.2253 199.699 79.2858 199.593 79.3463C199.068 79.1461 198.543 78.9459 197.62 78.5938C198.275 80.8006 198.845 82.7246 199.416 84.6487C199.352 84.7104 199.289 84.7722 199.225 84.834C198.508 84.3001 197.791 83.7663 196.856 83.0709V88.8717C196.781 88.8943 196.706 88.9169 196.632 88.9396C196.256 88.4226 195.881 87.9055 195.378 87.2122C194.374 88.7872 194.53 90.4242 194.177 92.1338C193.773 91.7695 193.497 91.5115 193.211 91.2647C192.338 90.5099 192.113 90.5617 191.636 91.5865C191.123 92.69 190.597 93.7873 190.06 94.9205C189.931 94.8177 189.827 94.7681 189.773 94.6859C189.061 93.6143 188.345 93.6337 187.625 94.7442C187.427 95.0486 187.192 95.3307 187.013 95.6451C186.652 96.2806 186.229 96.432 185.611 95.9486C185.078 95.5316 184.541 95.5626 184.052 96.0693C183.902 96.2251 183.697 96.3287 183.548 96.486C182.278 97.8334 180.945 98.1591 179.205 97.1815C178.166 96.5976 177.711 95.9626 177.704 94.8151C177.665 88.1426 177.571 81.4704 177.534 74.7979C177.479 64.7881 177.455 54.7782 177.42 44.7683C177.407 41.1435 177.422 37.5183 177.363 33.8943C177.354 33.3287 177.018 32.7684 176.833 32.2056L176.861 32.2342Z"
        fill="#7dd779" />
    <path
        d="M176.833 32.2056C176.75 32.777 176.598 33.3479 176.594 33.9199C176.505 46.5398 176.44 59.1598 176.354 71.7797C176.301 79.5046 176.223 87.2293 176.154 94.954C176.146 95.8273 176.212 96.6947 175.065 97.0465C173.769 97.4441 172.545 98.6125 171.191 97.1572C170.848 96.7889 170.413 96.5012 170.004 96.1986C169.191 95.5969 168.368 95.0832 167.511 96.5625C167.018 95.7858 166.656 95.1525 166.23 94.5653C165.944 94.1713 165.567 93.8425 165.23 93.4846C164.967 93.8462 164.707 94.2101 164.439 94.5678C164.377 94.6512 164.286 94.7136 164.019 94.9605C163.221 93.467 162.457 92.0358 161.716 90.6486C161.514 90.679 161.427 90.6672 161.375 90.7038C160.976 90.9832 160.583 91.2721 160.188 91.558C159.985 91.044 159.71 90.5453 159.595 90.0124C159.413 89.1686 159.339 88.3019 159.175 87.1193C158.311 87.7243 157.586 88.232 156.797 88.785C156.913 86.9659 157.026 85.197 157.139 83.4281C157.018 83.3549 156.897 83.2818 156.776 83.2086C156.173 83.702 155.569 84.1954 154.966 84.6889C154.877 84.6674 154.787 84.646 154.698 84.6246C155.235 82.756 155.773 80.8874 156.378 78.7816C155.523 78.9677 155.011 79.0792 154.239 79.2474C154.444 78.5608 154.557 78.0174 154.766 77.5136C155.323 76.1735 155.919 74.8495 156.504 73.521C156.732 73.0047 156.835 72.5285 156.143 72.288C155.232 71.9712 155.358 71.3886 155.728 70.7358C156.55 69.2827 157.361 67.8228 158.198 66.378C158.594 65.6941 158.932 65.1313 157.862 64.6705C157.033 64.3135 157.53 63.6657 157.844 63.227C158.563 62.2238 159.357 61.2743 160.114 60.2984C160.448 59.8682 160.779 59.4354 161.089 58.9884C161.413 58.521 161.513 58.0525 160.951 57.6706C160.297 57.226 160.524 56.8049 160.934 56.3249C162.019 55.0541 163.076 53.759 164.147 52.4759C164.62 51.9087 164.776 51.3598 164.511 50.5813C164.367 50.1566 164.623 49.4511 164.931 49.0478C165.788 47.9242 166.838 46.943 167.666 45.8007C168.021 45.3108 168.002 44.5583 168.174 43.9306C168.308 43.4394 168.345 42.8502 168.648 42.4894C169.674 41.2665 170.784 40.1111 171.895 38.9614C172.292 38.5512 172.465 38.2176 172.202 37.6292C172.059 37.3086 172.101 36.7096 172.319 36.4587C173.485 35.1158 174.718 33.8293 175.966 32.56C176.166 32.3562 176.558 32.3381 176.861 32.2342L176.833 32.2056Z"
        fill="#7dd779" />
</svg>