<svg width="500" height="500" viewBox="0 0 500 500" fill="none" xmlns="http://www.w3.org/2000/svg">
<g clip-path="url(#clip0_1_2)">
<circle cx="250" cy="250" r="250" fill="#407A3D"/>
<path d="M254 72.1525C254 72.1525 256.277 72.6482 257.61 73.9445C263.52 79.7245 269.229 85.7334 274.566 92.0243C275.891 93.5952 276.518 96.9275 275.744 98.75C274.272 102.227 275.581 104.24 277.765 106.467C282.909 111.728 288.014 117.02 293.087 122.335C296.139 125.53 298.022 128.817 296.348 133.659C295.721 135.482 297.162 138.616 298.634 140.385C302.971 145.593 307.828 150.389 312.414 155.407C315.257 158.518 316.651 161.728 315.544 166.342C314.901 169.018 316.163 172.869 317.929 175.218C322.43 181.211 327.705 186.641 332.616 192.344C333.902 193.839 334.979 195.509 336.086 197.011C330.044 203.5 330.075 203.477 335.42 210.287C340.176 216.342 344.894 222.434 349.534 228.58C351.672 231.409 352.532 234.17 348.062 235.855C344.878 237.06 345.235 239.256 346.59 241.605C350.796 248.887 355.026 256.161 359.232 263.444C362.106 268.423 360.851 272.099 355.46 274.47C359.96 285.519 364.476 296.614 369 307.717C368.458 308.022 367.923 308.327 367.381 308.624C364.709 307.618 362.028 306.611 357.319 304.85C360.657 315.929 363.562 325.583 366.475 335.245C366.149 335.557 365.824 335.862 365.499 336.175C361.843 333.498 358.186 330.814 353.415 327.322V356.443C353.035 356.558 352.648 356.672 352.268 356.786C350.355 354.194 348.442 351.594 345.878 348.116C340.757 356.024 341.555 364.236 339.75 372.823C337.69 370.993 336.28 369.696 334.824 368.461C330.37 364.671 329.223 364.93 326.791 370.078C324.173 375.614 321.493 381.127 318.75 386.815C318.092 386.297 317.565 386.053 317.286 385.641C313.653 380.265 310.005 380.357 306.333 385.931C305.326 387.456 304.126 388.874 303.212 390.453C301.368 393.64 299.215 394.403 296.062 391.978C293.343 389.881 290.609 390.041 288.114 392.58C287.347 393.366 286.302 393.884 285.542 394.67C279.067 401.433 272.266 403.065 263.396 398.162C258.098 395.234 255.774 392.046 255.743 386.282C255.549 352.791 255.069 319.292 254.875 285.801C254.596 235.558 254.473 185.306 254.287 135.062C254.217 116.868 254.294 98.6661 254 80.4795L254 72L254 72.1525Z" fill="#7DD779"/>
<path d="M251 72V80.6453C250.551 144.264 250.231 207.875 249.797 271.494C249.531 310.433 249.143 349.371 248.793 388.317C248.755 392.72 249.09 397.093 243.343 398.862C236.851 400.868 230.716 406.757 223.934 399.421C222.214 397.568 220.037 396.113 217.99 394.589C213.918 391.556 209.793 388.968 205.5 396.427C203.034 392.514 201.215 389.32 199.083 386.357C197.653 384.374 195.757 382.712 194.075 380.912C192.758 382.735 191.457 384.573 190.11 386.372C189.798 386.793 189.341 387.107 188.009 388.356C184.013 380.828 180.185 373.615 176.47 366.616C175.458 366.769 175.024 366.708 174.758 366.891C172.756 368.3 170.792 369.755 168.813 371.195C167.793 368.607 166.416 366.087 165.837 363.407C164.924 359.157 164.559 354.785 163.729 348.82C159.406 351.867 155.775 354.425 151.817 357.22C152.403 348.046 152.967 339.133 153.53 330.22C152.921 329.852 152.312 329.484 151.711 329.117C148.689 331.606 145.667 334.094 142.646 336.575C142.197 336.468 141.748 336.361 141.299 336.254C143.993 326.835 146.687 317.416 149.717 306.803C145.432 307.745 142.867 308.304 139 309.154C140.028 305.692 140.591 302.951 141.641 300.416C144.434 293.663 147.418 286.985 150.348 280.292C151.49 277.689 152 275.292 148.537 274.075C143.97 272.474 144.602 269.541 146.459 266.249C150.584 258.92 154.641 251.561 158.835 244.279C160.822 240.833 162.511 237.992 157.153 235.672C152.997 233.873 155.486 230.61 157.062 228.397C160.662 223.343 164.642 218.557 168.433 213.634C170.107 211.467 171.767 209.284 173.319 207.033C174.94 204.674 175.443 202.316 172.627 200.394C169.346 198.15 170.488 196.029 172.535 193.609C177.97 187.2 183.267 180.676 188.633 174.205C191.008 171.349 191.784 168.577 190.46 164.656C189.737 162.512 191.015 158.959 192.561 156.93C196.861 151.263 202.12 146.316 206.261 140.558C208.042 138.092 207.951 134.294 208.803 131.131C209.473 128.658 209.663 125.687 211.178 123.864C216.323 117.7 221.879 111.873 227.451 106.076C229.437 104.008 230.305 102.324 228.988 99.3603C228.273 97.7446 228.486 94.7275 229.574 93.4564C235.412 86.6871 241.592 80.2012 247.849 73.8072C248.854 72.7811 250.992 72.1838 250.992 72.1838C251 72.1608 251 72 251 72Z" fill="#7DD779"/>
</g>
<defs>
<clipPath id="clip0_1_2">
<rect width="500" height="500" fill="white"/>
</clipPath>
</defs>
</svg>
